<?xml version="1.0" encoding="utf-8"?>
<!-- Generator: Adobe Illustrator 17.0.0, SVG Export Plug-In . SVG Version: 6.00 Build 0)  -->
<!DOCTYPE svg PUBLIC "-//W3C//DTD SVG 1.1//EN" "http://www.w3.org/Graphics/SVG/1.1/DTD/svg11.dtd">
<svg version="1.1" id="Layer_1" xmlns="http://www.w3.org/2000/svg" xmlns:xlink="http://www.w3.org/1999/xlink" x="0px" y="0px"
	 width="1024px" height="78.734px" viewBox="0 0 1024 78.734" enable-background="new 0 0 1024 78.734" xml:space="preserve">
<g>
	<path fill="#F87E40" d="M55.003,52.642c0,2.859-2.318,5.177-5.177,5.177H31.017c-2.859,0-5.177-2.318-5.177-5.177V35.005
		c0-2.859,2.318-5.177,5.177-5.177h18.809c2.859,0,5.177,2.318,5.177,5.177V52.642z"/>
	<path fill="#E5E5E5" d="M48.957,57.784c0.058-0.217,0.092-0.444,0.092-0.679V43.472c0-1.442-1.169-2.611-2.611-2.611H34.405
		c-1.442,0-2.611,1.169-2.611,2.611v13.633c0,0.235,0.034,0.462,0.092,0.679H48.957z"/>
	<g>
		<rect x="45.167" y="42.637" fill="#373737" width="1.586" height="15.147"/>
		<rect x="34.091" y="42.637" fill="#373737" width="1.586" height="15.147"/>
	</g>
	<g>
		<path fill="#C1C1C1" d="M50.754,36.936c0,4.842-3.925,8.767-8.767,8.767h-3.131c-4.842,0-8.767-3.925-8.767-8.767v-3.131
			c0-4.842,3.925-8.767,8.767-8.767h3.131c4.842,0,8.767,3.925,8.767,8.767V36.936z"/>
		<path fill="#226866" d="M48.876,36.651c0,3.961-3.211,7.173-7.173,7.173h-2.562c-3.961,0-7.173-3.211-7.173-7.173v-2.562
			c0-3.961,3.211-7.173,7.173-7.173h2.562c3.961,0,7.173,3.211,7.173,7.173V36.651z"/>
		<path fill="#45BAB1" d="M38.364,29.278h2.202c3.405,0,6.165,2.76,6.165,6.165v2.202c0,1.181-0.332,2.284-0.908,3.221
			c1.427-1.129,2.343-2.875,2.343-4.836v-2.202c0-3.405-2.76-6.165-6.165-6.165H39.8c-2.224,0-4.173,1.178-5.257,2.944
			C35.593,29.776,36.92,29.278,38.364,29.278z"/>
	</g>
	<g>
		<path fill="#226866" d="M39.798,71.794c0,0.771-0.625,1.395-1.395,1.395h-5.452c-0.771,0-1.395-0.625-1.395-1.395l0,0
			c0-0.771,0.625-1.395,1.395-1.395h5.452C39.174,70.399,39.798,71.024,39.798,71.794L39.798,71.794z"/>
		<path fill="#226866" d="M49.288,71.794c0,0.771-0.625,1.395-1.395,1.395h-5.452c-0.771,0-1.395-0.625-1.395-1.395l0,0
			c0-0.771,0.625-1.395,1.395-1.395h5.452C48.663,70.399,49.288,71.024,49.288,71.794L49.288,71.794z"/>
	</g>
	<path fill="#C1C1C1" d="M33.149,59.963v10.436h5.766v-5.916c0-0.832,0.675-1.507,1.507-1.507c0.832,0,1.507,0.675,1.507,1.507
		v5.916h5.766V59.963H33.149z"/>
	<path fill="#F87E40" d="M48.516,60.298c0,0.185-0.16,0.335-0.358,0.335H32.686c-0.198,0-0.358-0.15-0.358-0.335v-2.179
		c0-0.185,0.16-0.335,0.358-0.335h15.472c0.198,0,0.358,0.15,0.358,0.335V60.298z"/>
	<g>
		<g>
			<path fill="#C1C1C1" d="M31.807,43.142c-0.069-0.004-0.138-0.01-0.208-0.01c-1.9,0-3.441,1.541-3.441,3.441v10.033h3.649V43.142z
				"/>
			<circle fill="#C1C1C1" cx="29.982" cy="57.13" r="2.586"/>
		</g>
		<g>
			<path fill="#C1C1C1" d="M49.037,43.142c0.069-0.004,0.138-0.01,0.208-0.01c1.9,0,3.441,1.541,3.441,3.441v10.033h-3.649V43.142z"
				/>
			<circle fill="#C1C1C1" cx="50.861" cy="57.13" r="2.586"/>
		</g>
	</g>
	<path fill="#226866" d="M44.419,51.206c0,1.294-1.049,2.344-2.344,2.344h-3.307c-1.294,0-2.344-1.049-2.344-2.344v-1.298
		c0-1.295,1.049-2.344,2.344-2.344h3.307c1.295,0,2.344,1.049,2.344,2.344V51.206z"/>
	<circle fill="#FFFFFF" cx="40.422" cy="50.557" r="1.854"/>
</g>
<g>
	<path fill="#5AA6F9" d="M92.824,18.779c0,8.308-6.734,15.034-15.035,15.034c-8.311,0-15.04-6.726-15.04-15.034
		c0-8.303,6.729-15.035,15.04-15.035C86.09,3.743,92.824,10.475,92.824,18.779z"/>
	<path fill="#F87E40" d="M78.456,21.714c0,0.614,0.215,1.177,0.572,1.621h-2.534c-1.726,0-3.124,1.399-3.124,3.124
		c0,1.725,1.399,3.124,3.124,3.124h11.744c2.747-2.657,4.483-6.351,4.576-10.455H81.042C79.614,19.128,78.456,20.286,78.456,21.714z
		"/>
	<path fill="#F87E40" d="M86.317,6.398h-5.106c-0.996,0-1.803,0.807-1.803,1.803s0.807,1.803,1.803,1.803h1.583
		c-0.221,0.344-0.35,0.752-0.35,1.191c0,1.22,0.989,2.21,2.21,2.21h7.177C90.736,10.547,88.797,8.11,86.317,6.398z"/>
	<path fill="#F87E40" d="M72.959,17.783c0-0.628-0.19-1.211-0.515-1.696h2.385c1.428,0,2.586-1.158,2.586-2.586
		s-1.158-2.586-2.586-2.586h-9.86c-1.407,2.288-2.22,4.981-2.22,7.864c0,0.698,0.051,1.383,0.143,2.055h7.016
		C71.593,20.834,72.959,19.468,72.959,17.783z"/>
</g>
<g>
	
		<rect x="113.895" y="49.67" transform="matrix(0.7071 0.7071 -0.7071 0.7071 70.0845 -66.652)" fill="#FFFFFF" width="3.206" height="3.206"/>
	
		<rect x="101.593" y="61.54" transform="matrix(0.7071 0.7071 -0.7071 0.7071 75.0901 -54.5658)" fill="#FFFFFF" width="3.639" height="3.639"/>
	<path fill="#373737" d="M118.175,52.476l-3.88-3.88c-0.18-0.18-0.18-0.475,0-0.655l0.98-0.98c0.18-0.18,0.475-0.18,0.655,0
		l3.88,3.88c0.18,0.18,0.18,0.475,0,0.655l-0.98,0.98C118.65,52.656,118.355,52.656,118.175,52.476z"/>
	<path fill="#373737" d="M103.517,63.254c-1.778-1.778-4.66-1.778-6.438,0l6.438,6.438
		C105.295,67.914,105.295,65.032,103.517,63.254z"/>
	<g>
		
			<rect x="95.54" y="65.656" transform="matrix(0.0031 1 -1 0.0031 163.2219 -32.0602)" fill="#373737" width="4.302" height="0.353"/>
		<rect x="98.788" y="68.905" fill="#373737" width="4.302" height="0.353"/>
	</g>
	<g>
		<circle fill="#373737" cx="98.183" cy="68.589" r="1.203"/>
		<circle fill="#FFFFFF" cx="98.183" cy="68.589" r="0.784"/>
	</g>
	
		<rect x="99.477" y="66.004" transform="matrix(0.707 0.7072 -0.7072 0.707 76.6398 -50.8531)" fill="#373737" width="0.442" height="2.142"/>
	<g>
		<g>
			
				<rect x="113.411" y="57.125" transform="matrix(0.7071 0.7071 -0.7071 0.7071 74.5084 -64.2389)" fill="#FFFFFF" width="2.775" height="1.393"/>
			<path fill="#373737" d="M123.705,66.728l1.206-1.206c0.11-0.11,0.118-0.285,0.018-0.398l-7.117-8.103
				c-0.109-0.124-0.304-0.128-0.424-0.008l-1.699,1.699l-1.699,1.699c-0.12,0.12-0.117,0.315,0.008,0.424l8.103,7.117
				c0.114,0.1,0.288,0.092,0.398-0.018L123.705,66.728z"/>
			
				<rect x="108.27" y="62.267" transform="matrix(0.7071 0.7071 -0.7071 0.7071 76.6402 -59.0984)" fill="#FFFFFF" width="2.775" height="1.393"/>
			<path fill="#373737" d="M118.564,71.869l1.206-1.206c0.11-0.11,0.118-0.285,0.018-0.398l-7.117-8.102
				c-0.109-0.124-0.304-0.128-0.424-0.008l-1.699,1.699l-1.699,1.699c-0.12,0.12-0.117,0.315,0.008,0.424l8.103,7.117
				c0.114,0.1,0.288,0.092,0.398-0.018L118.564,71.869z"/>
		</g>
		<g>
			
				<rect x="102.421" y="56.418" transform="matrix(-0.7071 -0.7071 0.7071 -0.7071 136.8276 170.9037)" fill="#FFFFFF" width="2.775" height="1.393"/>
			<path fill="#373737" d="M94.903,48.208l-1.206,1.206c-0.11,0.11-0.118,0.285-0.018,0.398l7.117,8.103
				c0.109,0.124,0.304,0.128,0.424,0.008l1.699-1.699l1.699-1.699c0.12-0.12,0.117-0.315-0.008-0.424l-8.103-7.117
				c-0.114-0.1-0.288-0.092-0.398,0.018L94.903,48.208z"/>
			
				<rect x="107.563" y="51.277" transform="matrix(-0.7071 -0.7071 0.7071 -0.7071 149.2388 165.7628)" fill="#FFFFFF" width="2.775" height="1.393"/>
			<path fill="#373737" d="M100.044,43.067l-1.206,1.206c-0.11,0.11-0.118,0.285-0.018,0.398l7.117,8.102
				c0.109,0.124,0.304,0.128,0.424,0.008l1.699-1.699l1.699-1.699c0.12-0.12,0.117-0.315-0.008-0.424l-8.102-7.117
				c-0.114-0.1-0.288-0.092-0.398,0.018L100.044,43.067z"/>
		</g>
	</g>
	<path fill="#373737" d="M106.213,64.74l-4.181-4.181c-0.347-0.347-0.347-0.914,0-1.261l9.784-9.784
		c0.347-0.347,0.914-0.347,1.261,0l4.181,4.181c0.347,0.347,0.347,0.914,0,1.261l-9.784,9.784
		C107.127,65.087,106.56,65.087,106.213,64.74z"/>
</g>
<g>
	<g>
		
			<rect x="914.1" y="42.938" transform="matrix(0.8864 -0.4628 0.4628 0.8864 82.548 433.0594)" fill="#40F4DE" width="19.438" height="10.728"/>
		
			<rect x="909.041" y="50.423" transform="matrix(0.8864 -0.4628 0.4628 0.8864 78.6586 428.6417)" fill="#40F4DE" width="7.651" height="7.196"/>
		
			<rect x="902.401" y="55.36" transform="matrix(0.8864 -0.4628 0.4628 0.8864 76.7413 426.4632)" fill="#40F4DE" width="10.138" height="2.958"/>
		
			<rect x="930.54" y="37.808" transform="matrix(0.8864 -0.4628 0.4628 0.8864 85.5132 436.4258)" fill="#373737" width="3.266" height="12.265"/>
		
			<rect x="915.069" y="46.646" transform="matrix(0.8864 -0.4628 0.4628 0.8864 79.8626 430.0089)" fill="#373737" width="2.379" height="11.209"/>
		
			<rect x="909.402" y="51.178" transform="matrix(0.8864 -0.4628 0.4628 0.8864 77.6555 427.4987)" fill="#373737" width="1.3" height="8.624"/>
		
			<rect x="902.151" y="57.193" transform="matrix(0.8864 -0.4628 0.4628 0.8864 75.0904 424.5883)" fill="#373737" width="1.338" height="4.146"/>
	</g>
	<g>
		<g>
			<g>
				<path fill="#373737" d="M911.225,74.734c-0.147,0-0.297-0.029-0.441-0.092c-0.562-0.244-0.819-0.897-0.575-1.459l6.631-15.272
					c0.244-0.562,0.896-0.819,1.459-0.576c0.562,0.244,0.819,0.897,0.575,1.459l-6.631,15.272
					C912.061,74.484,911.654,74.734,911.225,74.734z"/>
				<path fill="#373737" d="M924.982,74.734c0.147,0,0.297-0.029,0.441-0.092c0.562-0.244,0.819-0.897,0.575-1.459l-6.631-15.272
					c-0.244-0.562-0.896-0.819-1.459-0.576c-0.562,0.244-0.819,0.897-0.575,1.459l6.631,15.272
					C924.146,74.484,924.554,74.734,924.982,74.734z"/>
			</g>
			<path fill="#373737" d="M918.104,74.734c-0.612,0-1.109-0.496-1.109-1.109V57.912c0-0.612,0.497-1.109,1.109-1.109
				s1.109,0.496,1.109,1.109v15.713C919.213,74.237,918.716,74.734,918.104,74.734z"/>
		</g>
		<path fill="#373737" d="M920.439,58.604c0,0.628-0.509,1.137-1.137,1.137h-2.398c-0.628,0-1.137-0.509-1.137-1.137V54.84
			c0-0.628,0.509-1.137,1.137-1.137h2.398c0.628,0,1.137,0.509,1.137,1.137V58.604z"/>
		<circle fill="#FFFFFF" cx="918.104" cy="56.803" r="1.286"/>
	</g>
</g>
<g>
	<g>
		<polygon fill="#F87E40" points="869.028,35.744 863.769,47.834 875.858,42.574 		"/>
		<polygon fill="#FCA84C" points="869.318,37.615 865.721,45.882 873.989,42.286 		"/>
		
			<ellipse transform="matrix(0.7071 -0.7071 0.7071 0.7071 224.7826 627.1128)" fill="#EA493D" cx="869.383" cy="42.22" rx="3.034" ry="1.236"/>
	</g>
	<g>
		<path fill="#4EB7B4" d="M879.431,19.766c-4.024,0.395-11.456,2.245-14.443,10.336c-0.321,0.869,0.49,1.688,1.361,1.375
			l6.381-2.293c0.165-0.059,0.314-0.156,0.437-0.282l7.089-7.297C880.971,20.869,880.435,19.667,879.431,19.766z"/>
		<path fill="#4EB7B4" d="M891.906,32.241c-0.395,4.024-2.245,11.456-10.336,14.443c-0.869,0.321-1.688-0.489-1.375-1.361
			l2.293-6.381c0.059-0.165,0.156-0.314,0.282-0.437l7.297-7.089C890.803,30.701,892.005,31.237,891.906,32.241z"/>
	</g>
	<g>
		<path fill="#F95C32" d="M881.507,39.766c21.853-11.653,26.504-36.105,26.504-36.105s-24.452,4.651-36.105,26.504L881.507,39.766z"
			/>
		<path fill="#4EB7B4" d="M869.847,34.539l7.286,7.286c1.531-0.627,2.985-1.318,4.374-2.059l-9.601-9.601
			C871.165,31.553,870.475,33.008,869.847,34.539z"/>
	</g>
	<path fill="#3EBBDD" d="M883.171,30.43c-0.561,0.561-11.41,10.547-11.943,10.014c-0.533-0.532,9.454-11.382,10.014-11.943
		c0.561-0.561,1.447-0.583,1.979-0.051C883.754,28.983,883.731,29.869,883.171,30.43z"/>
	<circle fill="#333333" cx="895.411" cy="16.261" r="4.307"/>
	<circle fill="#4EB7B4" cx="895.411" cy="16.261" r="3.259"/>
	<path fill="#4EB7B4" d="M908.011,3.661c0,0-3.803,0.724-9.123,2.94l6.183,6.183C907.286,7.464,908.011,3.661,908.011,3.661z"/>
</g>
<g>
	<path fill="#48EDBA" d="M974.904,74.585c-1.776,0-3.325-2.181-4.479-6.307c-1.088-3.888-1.688-9.05-1.688-14.534
		s0.599-10.646,1.688-14.534c1.155-4.126,2.704-6.307,4.479-6.307s3.325,2.181,4.479,6.307c1.088,3.888,1.688,9.05,1.688,14.534
		s-0.599,10.646-1.688,14.534C978.229,72.404,976.68,74.585,974.904,74.585z M974.904,33.831c-2.478,0-5.24,8.178-5.24,19.914
		c0,11.735,2.761,19.913,5.24,19.913c2.478,0,5.24-8.178,5.24-19.913C980.143,42.009,977.382,33.831,974.904,33.831z"/>
	<circle fill="#373737" cx="974.904" cy="53.744" r="2.497"/>
	<circle fill="#373737" cx="970.909" cy="38.967" r="1.523"/>
	<path fill="#48EDBA" d="M960.833,67.264c-1.213,0-2.083-0.34-2.586-1.01c-1.067-1.42-0.253-3.968,2.352-7.37
		c2.455-3.206,6.221-6.785,10.606-10.08c6.952-5.224,13.932-8.599,17.78-8.599c1.213,0,2.083,0.34,2.586,1.01
		c1.067,1.42,0.253,3.968-2.352,7.37c-2.455,3.206-6.221,6.785-10.606,10.08C971.661,63.889,964.682,67.264,960.833,67.264z
		 M988.984,41.133c-3.604,0-10.526,3.381-17.223,8.413c-9.382,7.049-14.262,14.169-12.773,16.151c0.319,0.425,0.94,0.64,1.845,0.64
		c3.604,0,10.526-3.381,17.223-8.413c4.319-3.245,8.022-6.761,10.427-9.902c2.226-2.906,3.103-5.242,2.347-6.249
		C990.51,41.348,989.889,41.133,988.984,41.133z"/>
	<path fill="#48EDBA" d="M988.985,67.264C988.985,67.264,988.985,67.264,988.985,67.264c-3.85,0-10.829-3.376-17.781-8.599
		c-4.384-3.294-8.151-6.874-10.606-10.08c-2.605-3.402-3.418-5.95-2.352-7.37c0.504-0.67,1.374-1.01,2.586-1.01
		c3.849,0,10.828,3.375,17.78,8.599c4.384,3.294,8.151,6.874,10.606,10.08c2.605,3.402,3.418,5.95,2.352,7.37
		C991.067,66.924,990.197,67.264,988.985,67.264z M960.833,41.133c-0.905,0-1.526,0.215-1.845,0.64
		c-1.489,1.981,3.391,9.102,12.773,16.151c6.697,5.032,13.618,8.413,17.223,8.413h0.001c0.905,0,1.525-0.215,1.844-0.64
		c0.756-1.007-0.121-3.343-2.347-6.249c-2.405-3.141-6.108-6.657-10.427-9.902C971.359,44.513,964.437,41.133,960.833,41.133z"/>
	<circle fill="#373737" cx="989.324" cy="59.791" r="1.523"/>
	<circle fill="#373737" cx="965.537" cy="65.782" r="1.523"/>
</g>
<g>
	<g>
		<path fill="#F87E40" d="M960.719,15.688c0,6.075-4.924,10.993-10.994,10.993c-6.077,0-10.998-4.918-10.998-10.993
			c0-6.071,4.92-10.994,10.998-10.994C955.796,4.694,960.719,9.617,960.719,15.688z"/>
		<path fill="#EF6A30" d="M950.214,17.834c0,0.449,0.157,0.861,0.418,1.185h-1.853c-1.262,0-2.285,1.023-2.285,2.285
			c0,1.262,1.023,2.285,2.285,2.285h8.588c2.009-1.943,3.278-4.644,3.346-7.645h-8.609C951.06,15.944,950.214,16.79,950.214,17.834z
			"/>
		<path fill="#EF6A30" d="M955.961,6.635h-3.733c-0.728,0-1.318,0.59-1.318,1.318s0.59,1.318,1.318,1.318h1.158
			c-0.161,0.251-0.256,0.55-0.256,0.871c0,0.892,0.723,1.616,1.616,1.616h5.248C959.193,9.669,957.775,7.887,955.961,6.635z"/>
		<path fill="#EF6A30" d="M946.194,14.96c0-0.459-0.139-0.886-0.377-1.24h1.744c1.044,0,1.891-0.847,1.891-1.891
			c0-1.044-0.846-1.891-1.891-1.891h-7.21c-1.029,1.673-1.623,3.642-1.623,5.75c0,0.51,0.038,1.011,0.105,1.503h5.13
			C945.195,17.191,946.194,16.192,946.194,14.96z"/>
	</g>
	<path fill="#373737" d="M959.967,11.692c0.243,0.623,0.431,1.273,0.558,1.945c1.397,0.586,2.213,1.291,2.213,2.05
		c0,0.759-0.816,1.465-2.212,2.05c-2.337,0.98-6.303,1.625-10.802,1.625c-4.499,0-8.465-0.645-10.802-1.625
		c-1.397-0.586-2.212-1.291-2.212-2.05c0-0.759,0.816-1.465,2.212-2.05c0.127-0.672,0.315-1.322,0.558-1.945
		c-3.276,0.972-5.346,2.401-5.346,3.995c0,1.594,2.07,3.023,5.345,3.995c2.74,0.813,6.323,1.305,10.245,1.305
		c3.922,0,7.505-0.492,10.244-1.305c3.275-0.972,5.345-2.401,5.345-3.995C965.314,14.093,963.243,12.664,959.967,11.692z"/>
</g>
<g>
	<rect x="109.486" y="13.065" fill-rule="evenodd" clip-rule="evenodd" fill="#53C4CE" width="2.994" height="9.665"/>
	<rect x="113.197" y="7.283" fill-rule="evenodd" clip-rule="evenodd" fill="#53C4CE" width="2.994" height="15.446"/>
	<rect x="116.916" y="22.729" fill-rule="evenodd" clip-rule="evenodd" fill="#FF4942" width="2.985" height="8.844"/>
	<rect x="120.627" y="22.729" fill-rule="evenodd" clip-rule="evenodd" fill="#FF4942" width="2.985" height="18.276"/>
	<rect x="124.336" y="9.38" fill-rule="evenodd" clip-rule="evenodd" fill="#53C4CE" width="2.995" height="13.349"/>
	<rect x="128.048" y="3.409" fill-rule="evenodd" clip-rule="evenodd" fill="#53C4CE" width="2.994" height="19.321"/>
	<rect x="131.758" y="22.729" fill-rule="evenodd" clip-rule="evenodd" fill="#FF4942" width="2.995" height="3.253"/>
	<rect x="135.477" y="13.065" fill-rule="evenodd" clip-rule="evenodd" fill="#53C4CE" width="2.986" height="9.665"/>
	<rect x="139.188" y="8.508" fill-rule="evenodd" clip-rule="evenodd" fill="#53C4CE" width="2.986" height="14.221"/>
	<rect x="142.898" y="22.729" fill-rule="evenodd" clip-rule="evenodd" fill="#FF4942" width="2.994" height="8.491"/>
	<rect x="146.608" y="13.065" fill-rule="evenodd" clip-rule="evenodd" fill="#53C4CE" width="2.995" height="9.665"/>
	<rect x="150.319" y="19.165" fill-rule="evenodd" clip-rule="evenodd" fill="#53C4CE" width="2.995" height="3.564"/>
	<rect x="154.038" y="9.733" fill-rule="evenodd" clip-rule="evenodd" fill="#53C4CE" width="2.986" height="12.996"/>
	<rect x="157.749" y="3.409" fill-rule="evenodd" clip-rule="evenodd" fill="#53C4CE" width="2.994" height="19.321"/>
</g>
</svg>
